<?xml version="1.0" encoding="UTF-8" standalone="no"?>
<!-- Created with Inkscape (http://www.inkscape.org/) -->

<svg
   width="683.3158mm"
   height="86.423141mm"
   viewBox="0 0 683.3158 86.423141"
   version="1.1"
   id="svg5"
   xml:space="preserve"
   inkscape:version="1.2.1 (9c6d41e410, 2022-07-14, custom)"
   sodipodi:docname="logo-w.svg"
   xmlns:inkscape="http://www.inkscape.org/namespaces/inkscape"
   xmlns:sodipodi="http://sodipodi.sourceforge.net/DTD/sodipodi-0.dtd"
   xmlns="http://www.w3.org/2000/svg"
   xmlns:svg="http://www.w3.org/2000/svg"><sodipodi:namedview
     id="namedview7"
     pagecolor="#ffffff"
     bordercolor="#000000"
     borderopacity="0.25"
     inkscape:showpageshadow="2"
     inkscape:pageopacity="0.0"
     inkscape:pagecheckerboard="0"
     inkscape:deskcolor="#d1d1d1"
     inkscape:document-units="mm"
     showgrid="false"
     showguides="true"
     inkscape:zoom="0.18530686"
     inkscape:cx="1400.3799"
     inkscape:cy="442.50924"
     inkscape:window-width="1280"
     inkscape:window-height="643"
     inkscape:window-x="0"
     inkscape:window-y="0"
     inkscape:window-maximized="1"
     inkscape:current-layer="g1881" /><defs
     id="defs2" /><g
     inkscape:label="Capa 1"
     inkscape:groupmode="layer"
     id="layer1"
     transform="translate(-16.819387,-105.28843)"><g
       id="g1889"
       transform="matrix(0.99999838,0,0,0.99999838,2.7246339e-5,1.7056057e-4)"><path
         d="m 117.45687,140.53998 c 0,-8.79151 -7.14446,-15.92006 -15.92005,-15.92006 -8.791506,0 -15.920054,7.12059 -15.920054,15.92006 h 7.960026 c 0,-4.39758 3.534022,-7.96003 7.960028,-7.96003 4.39757,0 7.96003,3.53402 7.96003,7.96003 0,4.39757 -3.54199,7.96002 -7.97595,7.96002 H 16.819387 v 7.96003 h 84.726523 c 8.7881,0 15.9121,-7.14447 15.9121,-15.92005 z m -35.820116,-19.3315 c 0,-8.79151 -7.144465,-15.92005 -15.920061,-15.92005 -8.791503,0 -15.920051,7.12058 -15.920051,15.90845 v 0.0116 h 7.960026 c 0,-4.39757 3.534022,-7.96002 7.960025,-7.96002 4.397573,0 7.960035,3.53402 7.960035,7.96002 0,4.39758 -3.570417,7.96003 -7.983914,7.96003 H 24.780551 v 7.96003 h 40.953201 c 8.783551,0 15.904136,-7.14447 15.904136,-15.92006 z m 19.900066,58.56306 c 0,6.59453 -5.36142,11.94003 -11.940041,11.94003 -6.594538,0 -11.940038,-5.34094 -11.940038,-11.90456 v -0.0355 h 7.960025 c 0,2.19701 1.767015,3.98001 3.980013,3.98001 2.19701,0 3.980013,-1.76701 3.980013,-3.98001 0,-2.19702 -1.787457,-3.98001 -4.007534,-3.98001 H 40.699241 v -7.96003 h 48.897312 c 6.594539,0 11.940037,5.36142 11.940037,11.94004 z"
         id="path611"
         style="fill:#17bdcb;fill-opacity:1;stroke-width:0.227429"
         sodipodi:nodetypes="csccsssccscccssccsssccscccssccsssccscc" /><g
         id="g1881"
         transform="translate(0,68.989522)"><text
           xml:space="preserve"
           style="font-size:66.4788px;font-family:Inter;-inkscape-font-specification:Inter;fill:#ffffff;stroke-width:42.8282;stroke-linecap:round;stroke-linejoin:round;stop-color:#000000"
           x="145.69366"
           y="104.25117"
           id="text723"><tspan
             sodipodi:role="line"
             id="tspan721"
             style="font-style:normal;font-variant:normal;font-weight:500;font-stretch:normal;font-family:Inter;-inkscape-font-specification:'Inter Medium';fill:#ffffff;stroke-width:42.8282"
             x="145.69366"
             y="104.25117">tailwind</tspan></text><text
           xml:space="preserve"
           style="font-size:49.6672px;font-family:Inter;-inkscape-font-specification:Inter;fill:#17bdcb;fill-opacity:0.980392;stroke-width:31.9975;stroke-linecap:round;stroke-linejoin:round;stop-color:#000000"
           x="400.10388"
           y="103.96012"
           id="text723-3"><tspan
             sodipodi:role="line"
             id="tspan721-6"
             style="font-style:normal;font-variant:normal;font-weight:500;font-stretch:normal;font-family:Inter;-inkscape-font-specification:'Inter Medium';fill:#17bdcb;fill-opacity:0.980392;stroke-width:31.9975"
             x="400.10388"
             y="103.96012">BOOTSTRAP</tspan></text></g></g></g></svg>
