<?xml version="1.0" encoding="UTF-8" standalone="no"?>
<!-- Created with Inkscape (http://www.inkscape.org/) -->

<svg
   width="630.22986mm"
   height="97.535561mm"
   viewBox="0 0 630.22986 97.535561"
   version="1.1"
   id="svg5"
   xml:space="preserve"
   inkscape:version="1.2.1 (9c6d41e410, 2022-07-14, custom)"
   sodipodi:docname="logo.svg"
   inkscape:export-filename="nav_logo_transparent.png"
   inkscape:export-xdpi="96"
   inkscape:export-ydpi="96"
   xmlns:inkscape="http://www.inkscape.org/namespaces/inkscape"
   xmlns:sodipodi="http://sodipodi.sourceforge.net/DTD/sodipodi-0.dtd"
   xmlns:xlink="http://www.w3.org/1999/xlink"
   xmlns="http://www.w3.org/2000/svg"
   xmlns:svg="http://www.w3.org/2000/svg"><sodipodi:namedview
     id="namedview7"
     pagecolor="#ffffff"
     bordercolor="#000000"
     borderopacity="0.25"
     inkscape:showpageshadow="2"
     inkscape:pageopacity="0.0"
     inkscape:pagecheckerboard="0"
     inkscape:deskcolor="#d1d1d1"
     inkscape:document-units="mm"
     showgrid="false"
     showguides="true"
     inkscape:zoom="0.050005255"
     inkscape:cx="789.91698"
     inkscape:cy="-1959.794"
     inkscape:window-width="1280"
     inkscape:window-height="643"
     inkscape:window-x="0"
     inkscape:window-y="0"
     inkscape:window-maximized="1"
     inkscape:current-layer="layer1" /><defs
     id="defs2"><linearGradient
       inkscape:collect="always"
       id="linearGradient5135"><stop
         style="stop-color:#2e2b5e;stop-opacity:1;"
         offset="0"
         id="stop5131" /><stop
         style="stop-color:#4c489d;stop-opacity:1;"
         offset="1"
         id="stop5133" /></linearGradient><linearGradient
       inkscape:collect="always"
       xlink:href="#linearGradient5135"
       id="linearGradient5137"
       x1="24.15004"
       y1="-383.80865"
       x2="109.19525"
       y2="-298.76346"
       gradientUnits="userSpaceOnUse"
       gradientTransform="matrix(0.93837926,0,0,0.93837926,563.37955,363.75154)" /></defs><g
     inkscape:label="Capa 1"
     inkscape:groupmode="layer"
     id="layer1"
     transform="translate(-43.362439,-398.17864)"><g
       id="g5484"
       transform="matrix(0.37246645,0,0,0.37246645,184.87283,464.9031)"><rect
         style="fill:none;fill-opacity:1;stroke-width:15.2987;stroke-linecap:round;stroke-linejoin:round;stop-color:#000000"
         id="rect5448"
         width="1692.0447"
         height="261.86398"
         x="-379.92789"
         y="-179.1422"
         inkscape:export-filename="nav_logo.png"
         inkscape:export-xdpi="96"
         inkscape:export-ydpi="96" /><g
         id="g5334"
         transform="matrix(2.1246787,0,0,2.1246787,-1080.1529,-997.82878)"
         inkscape:export-filename="nav_logo.png"
         inkscape:export-xdpi="96"
         inkscape:export-ydpi="96"><g
           id="g5273"
           transform="matrix(0.68939567,0,0,0.68939567,149.38987,138.8236)"><rect
             style="fill:url(#linearGradient5137);fill-opacity:1;stroke-width:4.99999;stroke-linecap:round;stroke-linejoin:round;stop-color:#000000"
             id="rect5079"
             width="150.96729"
             height="150.96729"
             x="494.03778"
             y="-12.926578"
             rx="42.005432"
             ry="42.005432"
             transform="rotate(45)" /><path
             d="m 403.31428,439.85412 c 0,-7.83367 -6.36615,-14.18564 -14.18572,-14.18564 -7.83367,0 -14.18564,6.34484 -14.18564,14.18564 h 7.09286 c 0,-3.9185 3.14897,-7.09278 7.09278,-7.09278 3.91849,0 7.09286,3.14895 7.09286,7.09278 0,3.91849 -3.15609,7.09285 -7.10704,7.09285 h -75.47379 v 7.09286 h 75.49608 c 7.83071,0 14.1786,-6.36615 14.1786,-14.18571 z m -31.91779,-17.22546 c 0,-7.83368 -6.36609,-14.18564 -14.18564,-14.18564 -7.83374,0 -14.18571,6.34483 -14.18571,14.17533 v 0.01 h 7.09286 c 0,-3.91847 3.14903,-7.09283 7.09285,-7.09283 3.9185,0 7.09282,3.14903 7.09282,7.09283 0,3.91846 -3.18144,7.0928 -7.11413,7.0928 h -36.4551 v 7.09286 h 36.49158 c 7.82664,0 14.17154,-6.36615 14.17154,-14.18566 z m 17.73207,52.18299 c 0,5.87611 -4.77726,10.63927 -10.6392,10.63927 -5.87613,0 -10.63929,-4.12021 -10.63929,-9.96881 v -0.0316 h 7.09285 c 0,1.95766 1.57452,2.90758 3.54644,2.90758 1.95766,0 3.54642,-1.57451 3.54642,-3.54642 0,-1.95768 -1.59278,-3.54635 -3.57098,-3.54635 h -43.54592 v -7.09286 h 43.57026 c 5.87612,0 10.63929,4.77735 10.63929,10.63921 z"
             id="path611-5-9"
             style="fill:#ffffff;fill-opacity:1;stroke-width:0.202655"
             sodipodi:nodetypes="csccsssccscccssccsssccscccssccsssccscc" /></g><g
           id="g1881-6-3"
           transform="matrix(1.1244292,0,0,1.1244292,324.53533,357.54307)"><text
             xml:space="preserve"
             style="font-size:66.4788px;font-family:Inter;-inkscape-font-specification:Inter;fill:#ffffff;stroke-width:42.8282;stroke-linecap:round;stroke-linejoin:round;stop-color:#000000"
             x="145.69366"
             y="104.25117"
             id="text723-2-6"><tspan
               sodipodi:role="line"
               id="tspan721-9-0"
               style="font-style:normal;font-variant:normal;font-weight:500;font-stretch:normal;font-family:Inter;-inkscape-font-specification:'Inter Medium';fill:#ffffff;stroke-width:42.8282"
               x="145.69366"
               y="104.25117">tailwind</tspan></text><text
             xml:space="preserve"
             style="font-size:49.6672px;font-family:Inter;-inkscape-font-specification:Inter;fill:#2e2b5e;fill-opacity:1;stroke-width:31.9975;stroke-linecap:round;stroke-linejoin:round;stop-color:#000000"
             x="400.10388"
             y="103.96012"
             id="text723-3-1-6"><tspan
               sodipodi:role="line"
               id="tspan721-6-2-2"
               style="font-style:normal;font-variant:normal;font-weight:bold;font-stretch:normal;font-family:Inter;-inkscape-font-specification:'Inter Bold';fill:#2e2b5e;fill-opacity:1;stroke-width:31.9975"
               x="400.10388"
               y="103.96012">BOOTSTRAP</tspan></text></g></g></g></g></svg>
